<svg width="40" height="40" viewBox="0 0 40 40" fill="none" xmlns="http://www.w3.org/2000/svg">
<rect width="40" height="40" rx="20" fill="white"/>
<path d="M8.00468 19.6361C7.93908 22.8179 10.1306 25.8543 13.1453 26.8446C15.9849 27.7986 19.4762 27.0849 21.3658 24.6531C22.7454 22.9491 23.0589 20.6775 22.9095 18.5552C20.4777 18.5334 18.0459 18.5407 15.6176 18.5443C15.6137 19.4106 15.6176 20.2736 15.6213 21.14C17.0773 21.1802 18.5337 21.1617 19.9898 21.1911C19.6223 22.4507 18.7849 23.6229 17.5141 24.0778C15.0605 25.1591 11.9298 23.7465 11.1578 21.1726C10.2259 18.7078 11.7515 15.7334 14.2704 15.0164C15.8323 14.4668 17.4413 15.0856 18.7777 15.8975C19.4548 15.2639 20.0884 14.5868 20.7108 13.9025C19.1924 12.632 17.2412 11.853 15.2353 12.0241C11.2995 12.0709 7.85535 15.7044 8.00468 19.6361Z" fill="#DC4E41"/>
<path d="M27.6423 16.359C27.6351 17.0836 27.6275 17.8118 27.6239 18.536C26.8957 18.5433 26.1714 18.5469 25.4468 18.5505C25.4468 19.2751 25.4468 19.9957 25.4468 20.7203C26.1714 20.7239 26.8996 20.7275 27.6239 20.7351C27.6311 21.4597 27.6311 22.1839 27.6384 22.9121C28.3593 22.9121 29.0839 22.9085 29.8081 22.9121C29.8121 22.1839 29.8154 21.4597 29.823 20.7315C30.5472 20.7279 31.2754 20.7242 32 20.7206C32 19.9961 32 19.2754 32 18.5509C31.2757 18.5472 30.5475 18.5436 29.823 18.5364C29.819 17.8118 29.8121 17.0836 29.8081 16.3593C29.0839 16.359 28.3629 16.359 27.6423 16.359Z" fill="#DC4E41"/>
<path d="M8.00468 19.6358C7.85535 15.704 11.2992 12.0706 15.2349 12.0235C17.2409 11.8524 19.1924 12.6313 20.7104 13.9018C20.0877 14.5865 19.4541 15.2633 18.7774 15.8969C17.441 15.0849 15.8319 14.4662 14.27 15.0157C11.7508 15.733 10.2252 18.7075 11.1575 21.1719C11.9295 23.7459 15.0602 25.1584 17.5138 24.0772C18.7843 23.6222 19.6219 22.45 19.9895 21.1904C18.5334 21.1614 17.077 21.1795 15.6209 21.1393C15.6173 20.273 15.6137 19.4099 15.6173 18.5436C18.0455 18.54 20.4774 18.5327 22.9092 18.5545C23.0585 20.6771 22.7454 22.9488 21.3654 24.6524C19.4759 27.0842 15.9849 27.7979 13.1449 26.8439C10.1309 25.854 7.93908 22.8176 8.00468 19.6358Z" fill="#DC4E41"/>
<path d="M27.6423 16.359C28.3633 16.359 29.0839 16.359 29.8081 16.359C29.8121 17.0836 29.819 17.8118 29.823 18.536C30.5472 18.5433 31.2754 18.5469 32 18.5505C32 19.2751 32 19.9957 32 20.7203C31.2757 20.7239 30.5475 20.7275 29.823 20.7312C29.8157 21.4594 29.8121 22.1836 29.8081 22.9118C29.0839 22.9082 28.359 22.9118 27.6384 22.9118C27.6314 22.1836 27.6314 21.4594 27.6239 20.7348C26.8996 20.7272 26.1714 20.7239 25.4468 20.72C25.4468 19.9954 25.4468 19.2748 25.4468 18.5502C26.1714 18.5466 26.896 18.5429 27.6239 18.5357C27.6275 17.8118 27.6347 17.0836 27.6423 16.359Z" fill="#DC4E41"/>
</svg>
