<svg width="17" height="19" viewBox="0 0 17 19" fill="none" xmlns="http://www.w3.org/2000/svg">
<path d="M14.7344 2.375H11.4688V1.78125C11.4688 0.79748 10.6713 0 9.6875 0H7.3125C6.32873 0 5.53125 0.79748 5.53125 1.78125V2.375H2.26562C1.44584 2.375 0.78125 3.03959 0.78125 3.85938V5.04688C0.78125 5.37481 1.04706 5.64062 1.375 5.64062H15.625C15.9529 5.64062 16.2188 5.37481 16.2188 5.04688V3.85938C16.2188 3.03959 15.5542 2.375 14.7344 2.375ZM6.71875 1.78125C6.71875 1.45395 6.9852 1.1875 7.3125 1.1875H9.6875C10.0148 1.1875 10.2812 1.45395 10.2812 1.78125V2.375H6.71875V1.78125Z" fill="#252223"/>
<path d="M1.90795 6.82812C1.802 6.82812 1.71758 6.91667 1.72263 7.0225L2.21247 17.3034C2.25774 18.2548 3.03927 19 3.99149 19H13.0083C13.9606 19 14.7421 18.2548 14.7874 17.3034L15.2772 7.0225C15.2822 6.91667 15.1978 6.82812 15.0919 6.82812H1.90795ZM10.8749 8.3125C10.8749 7.98445 11.1406 7.71875 11.4687 7.71875C11.7967 7.71875 12.0624 7.98445 12.0624 8.3125V16.0312C12.0624 16.3593 11.7967 16.625 11.4687 16.625C11.1406 16.625 10.8749 16.3593 10.8749 16.0312V8.3125ZM7.90616 8.3125C7.90616 7.98445 8.17186 7.71875 8.49991 7.71875C8.82796 7.71875 9.09366 7.98445 9.09366 8.3125V16.0312C9.09366 16.3593 8.82796 16.625 8.49991 16.625C8.17186 16.625 7.90616 16.3593 7.90616 16.0312V8.3125ZM4.93741 8.3125C4.93741 7.98445 5.20312 7.71875 5.53116 7.71875C5.85921 7.71875 6.12491 7.98445 6.12491 8.3125V16.0312C6.12491 16.3593 5.85921 16.625 5.53116 16.625C5.20312 16.625 4.93741 16.3593 4.93741 16.0312V8.3125Z" fill="#252223"/>
</svg>
