<svg width="19" height="19" viewBox="0 0 19 19" fill="none" xmlns="http://www.w3.org/2000/svg">
<path d="M15.7344 2.375H12.4688V1.78125C12.4688 0.79748 11.6713 0 10.6875 0H8.3125C7.32873 0 6.53125 0.79748 6.53125 1.78125V2.375H3.26562C2.44584 2.375 1.78125 3.03959 1.78125 3.85938V5.04688C1.78125 5.37481 2.04706 5.64062 2.375 5.64062H16.625C16.9529 5.64062 17.2188 5.37481 17.2188 5.04688V3.85938C17.2188 3.03959 16.5542 2.375 15.7344 2.375ZM7.71875 1.78125C7.71875 1.45395 7.9852 1.1875 8.3125 1.1875H10.6875C11.0148 1.1875 11.2812 1.45395 11.2812 1.78125V2.375H7.71875V1.78125Z" fill="#BFB7B6"/>
<path d="M2.90795 6.82812C2.802 6.82812 2.71758 6.91667 2.72263 7.0225L3.21247 17.3034C3.25774 18.2548 4.03927 19 4.99149 19H14.0083C14.9606 19 15.7421 18.2548 15.7874 17.3034L16.2772 7.0225C16.2822 6.91667 16.1978 6.82812 16.0919 6.82812H2.90795ZM11.8749 8.3125C11.8749 7.98445 12.1406 7.71875 12.4687 7.71875C12.7967 7.71875 13.0624 7.98445 13.0624 8.3125V16.0312C13.0624 16.3593 12.7967 16.625 12.4687 16.625C12.1406 16.625 11.8749 16.3593 11.8749 16.0312V8.3125ZM8.90616 8.3125C8.90616 7.98445 9.17187 7.71875 9.49991 7.71875C9.82796 7.71875 10.0937 7.98445 10.0937 8.3125V16.0312C10.0937 16.3593 9.82796 16.625 9.49991 16.625C9.17187 16.625 8.90616 16.3593 8.90616 16.0312V8.3125ZM5.93741 8.3125C5.93741 7.98445 6.20312 7.71875 6.53116 7.71875C6.85921 7.71875 7.12491 7.98445 7.12491 8.3125V16.0312C7.12491 16.3593 6.85921 16.625 6.53116 16.625C6.20312 16.625 5.93741 16.3593 5.93741 16.0312V8.3125Z" fill="#BFB7B6"/>
</svg>
