<svg width="35" height="27" viewBox="0 0 35 27" fill="none" xmlns="http://www.w3.org/2000/svg">
<path d="M30.0578 18.5209C29.8687 16.8638 29.06 15.3343 27.7806 14.2141C26.8278 13.3799 25.6689 12.8236 24.4282 12.5905C25.2531 11.5971 26.3767 11.1671 27.2146 10.9816C27.4351 10.9328 27.5799 10.741 27.5669 10.5152C27.5539 10.2901 27.3884 10.1168 27.1644 10.0937H27.1644C24.9872 9.8698 23.4969 10.7768 22.6544 11.536C22.159 9.5946 20.918 7.99405 20.1358 7.13486C19.8221 6.7904 19.2669 7.16615 19.4714 7.58514C20.0709 8.81385 20.2703 10.1912 20.2977 11.3867C19.138 10.4126 17.6587 9.91885 15.9575 10.0937C15.4501 10.1459 15.4096 10.8715 15.9072 10.9816C16.7452 11.167 17.8687 11.597 18.6937 12.5904C15.4659 13.1972 13.0205 15.966 13.0205 19.2804C13.0205 23.3899 16.7559 26.5907 20.977 26.032C21.1301 26.0117 21.2379 25.8711 21.2176 25.718C21.1974 25.5649 21.0571 25.4571 20.9037 25.4774C17.0136 25.9921 13.5799 23.0486 13.5799 19.2804C13.5799 16.0322 16.1447 13.357 19.406 13.0547C20.0263 12.997 20.5195 13.0442 20.5195 13.0442C20.6335 13.0442 21.1457 13.1195 21.2756 13.1303C22.1244 13.2011 22.5191 12.909 23.8934 13.0733C23.8934 13.0733 23.8934 13.0733 23.8934 13.0733C26.8218 13.4229 29.17 15.675 29.502 18.5842C29.5195 18.7377 29.6582 18.8478 29.8116 18.8305C29.9651 18.813 30.0753 18.6743 30.0578 18.5209ZM20.2784 12.4709C19.9826 12.4604 19.6649 12.4676 19.3306 12.4997C18.5881 11.4653 17.5759 10.913 16.691 10.6182C18.3973 10.6354 19.5698 11.4151 20.2933 12.1412C20.2895 12.2535 20.2846 12.3629 20.2784 12.4709ZM20.8364 12.5118C20.9185 11.0924 20.7999 9.59684 20.3477 8.25445C21.3067 9.48689 22.0867 10.9622 22.2694 12.5135C21.2646 12.6285 21.4269 12.5781 20.8364 12.5118ZM23.7912 12.4997C23.4558 12.4676 23.1341 12.4601 22.8281 12.4713C22.8147 12.3542 22.7945 12.2189 22.7886 12.1816C23.5182 11.4334 24.7007 10.6346 26.4313 10.618C25.5463 10.9127 24.5338 11.4651 23.7912 12.4997Z" fill="#13AD54" stroke="#13AD54" stroke-width="0.2"/>
<path d="M34.3457 26.005C33.0929 25.9707 32.0656 25.6769 31.2242 25.2353C32.692 24.4913 33.6792 23.4606 34.2626 22.6987C34.5046 22.3825 34.0938 21.9814 33.7831 22.2294C32.4386 23.3023 30.9643 23.8274 29.3994 23.7918C28.9354 23.2649 28.5821 22.7019 28.315 22.1726C28.2603 22.0641 28.1279 22.0205 28.0195 22.0753C27.911 22.13 27.8674 22.2624 27.9222 22.3709C29.0641 24.6337 31.0014 26.0674 33.4889 26.3809C30.5086 26.7285 27.6063 25.5815 25.423 22.675C24.9224 22.0092 24.7996 21.7759 24.7055 21.5608C23.9787 19.8984 24.9992 18.4254 26.3422 19.3734C27.1886 19.9713 27.3231 20.8798 27.5057 21.3981C27.5462 21.5127 27.6718 21.573 27.7864 21.5325C27.901 21.4921 27.9612 21.3665 27.9208 21.2519C27.855 21.0653 27.8147 20.9253 27.7961 20.8568C27.79 20.8312 27.7832 20.8055 27.7764 20.7801C27.6005 20.1172 27.2159 19.4933 26.6928 19.0857C26.6912 18.6551 26.4954 18.2293 26.1293 17.9492C25.8079 17.7037 25.5863 17.3718 25.5052 17.0146C25.3302 16.2436 25.4285 15.5737 25.7973 15.0236C25.9639 14.7753 25.628 14.4936 25.4136 14.7056C24.9635 15.1508 24.2187 16.1441 24.288 17.795C24.2945 17.9495 24.2285 18.0975 24.1615 18.1645C23.7358 18.669 23.7108 19.3894 24.0869 19.9189C23.9289 20.6212 24.0958 21.3864 24.4351 22.007C24.1119 21.9089 23.7849 21.8644 23.4721 21.8766C23.1883 21.5429 22.761 21.3494 22.3085 21.3714C21.9044 21.3911 21.5211 21.2803 21.2288 21.0596C20.5978 20.5832 20.2409 20.0078 20.168 19.3494C20.1349 19.0509 19.6969 19.0548 19.6697 19.354C19.6129 19.9845 19.6843 21.2241 20.8018 22.441C20.9652 22.619 20.9434 22.8344 20.9434 22.805C20.9434 23.4652 21.3888 24.0319 22.0177 24.194C22.3018 24.7401 22.7984 25.1704 23.3549 25.4446C23.8466 25.6868 24.8365 25.906 25.3539 25.997C25.4737 26.018 25.5877 25.938 25.6087 25.8183C25.6298 25.6987 25.5498 25.5846 25.4301 25.5636C24.9918 25.4866 24.0089 25.2763 23.5494 25.0498C21.9255 24.2499 21.748 22.4681 23.391 22.3224C23.8932 22.2786 24.4269 22.4196 24.8712 22.6661C25.4102 23.4235 26.0255 24.123 26.7254 24.726C24.9905 24.5482 24.1435 24.1494 23.7334 23.8283C23.6378 23.7534 23.4994 23.7703 23.4246 23.8659C23.3496 23.9616 23.3665 24.0999 23.4622 24.1748C23.9695 24.5719 25.0551 25.0751 27.3463 25.2181C27.5762 25.3853 27.8142 25.5424 28.0608 25.6881C27.5339 25.7361 26.99 25.738 26.4365 25.6932C26.3153 25.6836 26.2093 25.7736 26.1995 25.8947C26.1897 26.0159 26.2799 26.122 26.4011 26.1318C27.1739 26.1943 27.9562 26.1724 28.7309 26.0461C30.5255 26.9046 32.5295 27.086 34.4094 26.6727C34.7981 26.5873 34.7434 26.0159 34.3457 26.005ZM29.8296 24.2283C31.0773 24.1778 32.2657 23.7881 33.3764 23.0658C32.771 23.7157 31.9151 24.4354 30.7731 24.9656C30.4394 24.7521 30.1237 24.5053 29.8296 24.2283ZM21.8215 23.6304C21.5544 23.4502 21.3834 23.1449 21.3834 22.8025C21.3837 22.5587 21.2923 22.3247 21.1259 22.1435C20.6789 21.6567 20.4181 21.1685 20.2708 20.7274C20.4573 20.9744 20.6891 21.2036 20.9635 21.4108C21.338 21.6935 21.8232 21.8356 22.3298 21.811C22.5415 21.8007 22.7436 21.8582 22.9123 21.9655C22.1112 22.2001 21.6881 22.8712 21.8215 23.6304ZM24.3002 19.3616C24.2123 19.0516 24.2785 18.708 24.4994 18.4463C24.6568 18.2602 24.7379 18.0223 24.7275 17.7766C24.6999 17.1162 24.8154 16.5749 24.9873 16.1428C24.9706 16.4519 24.9999 16.7765 25.076 17.112C25.1798 17.5694 25.459 17.991 25.862 18.2988C26.0281 18.4258 26.1469 18.5987 26.2076 18.7927C25.435 18.4513 24.6835 18.7031 24.3002 19.3616Z" fill="#13AD54" stroke="#13AD54" stroke-width="0.2"/>
<path d="M27.9499 23.8363C25.9513 22.0628 25.6519 20.6189 25.6475 20.5967C25.6254 20.4776 25.5108 20.3987 25.3917 20.4206C25.2722 20.4424 25.193 20.557 25.2148 20.6766C25.2266 20.741 25.5277 22.2752 27.6577 24.1655C27.6997 24.2026 27.7517 24.2209 27.8037 24.2209C27.8644 24.2209 27.9249 24.1959 27.9683 24.1469C28.049 24.0561 28.0407 23.917 27.9499 23.8363Z" fill="#13AD54" stroke="#13AD54" stroke-width="0.2"/>
<g clip-path="url(#clip0_929:1802)">
<path d="M2.78693 16.326C3.00172 16.3571 3.2007 16.2071 3.23154 15.9908C3.39182 14.8681 3.89319 14.0215 4.3977 14.0215C4.67035 14.0215 4.95918 14.2808 5.19 14.7329C5.46689 15.2752 5.61937 16.005 5.61937 16.7878C5.61937 17.5706 5.46689 18.3004 5.19 18.8427C4.95918 19.2948 4.67035 19.5541 4.3977 19.5541C3.89314 19.5541 3.39177 18.7075 3.23154 17.5847C3.20059 17.3684 3.00146 17.2187 2.78693 17.2495C2.57224 17.2806 2.42327 17.4811 2.45412 17.6973C2.68022 19.2811 3.4613 20.3451 4.39775 20.3451C4.98353 20.3451 5.51297 19.94 5.88856 19.2044C6.22148 18.5523 6.40485 17.6941 6.40485 16.7878C6.40485 15.8815 6.22148 15.0233 5.88856 14.3712C5.51297 13.6356 4.98353 13.2305 4.39775 13.2305C3.4613 13.2305 2.68022 14.2945 2.45412 15.8783C2.42327 16.0945 2.57224 16.2949 2.78693 16.326Z" fill="#13AD54"/>
<path d="M8.37706 8.59286C8.594 8.59286 8.76978 8.41577 8.76978 8.19735V7.75775C8.76978 7.21807 8.40869 6.76202 7.91716 6.62091V5.08127C7.91716 4.42937 7.39055 3.89907 6.7433 3.89907H5.86859L5.52195 0.588885C5.48682 0.253125 5.20762 0 4.8724 0H3.92406C3.58889 0 3.3097 0.253125 3.27456 0.588779L2.92792 3.89902H2.05321C1.40596 3.89902 0.879349 4.42937 0.879349 5.08122V6.62091C0.387771 6.76202 0.0267334 7.21807 0.0267334 7.75775V25.8178C0.0267334 26.4697 0.553342 27 1.20065 27H7.59597C8.24322 27 8.76983 26.4697 8.76983 25.8178V9.92102C8.76983 9.7026 8.59405 9.52552 8.37711 9.52552C8.16018 9.52552 7.9844 9.7026 7.9844 9.92102V11.1557H0.812116V7.75775C0.812116 7.54207 0.986378 7.36657 1.20059 7.36657H7.59592C7.81008 7.36657 7.98434 7.54207 7.98434 7.75775V8.19735C7.98434 8.41577 8.16012 8.59286 8.37706 8.59286ZM7.59592 26.209H1.20059C0.986378 26.209 0.812116 26.0335 0.812116 25.8178V22.4198H7.98434V25.8178C7.98434 26.0335 7.81008 26.209 7.59592 26.209ZM7.98434 11.9467V21.6288H0.812116V11.9467H7.98434ZM4.04313 0.791016H4.75333L5.07876 3.89907H3.7177L4.04313 0.791016ZM2.05316 4.69009H6.74325C6.95741 4.69009 7.13168 4.86559 7.13168 5.08127V6.57555H1.66473V5.08127C1.66473 4.86559 1.83905 4.69009 2.05316 4.69009Z" fill="#13AD54"/>
</g>
<defs>
<clipPath id="clip0_929:1802">
<rect width="8.79688" height="27" fill="white"/>
</clipPath>
</defs>
</svg>
