<svg width="9" height="27" viewBox="0 0 9 27" fill="none" xmlns="http://www.w3.org/2000/svg">
<path d="M8.37706 8.59286C8.594 8.59286 8.76978 8.41577 8.76978 8.19735V7.75775C8.76978 7.21807 8.40869 6.76202 7.91716 6.62091V5.08127C7.91716 4.42937 7.39055 3.89907 6.7433 3.89907H5.86859L5.52195 0.588885C5.48682 0.253125 5.20762 0 4.8724 0H3.92406C3.58889 0 3.3097 0.253125 3.27456 0.588779L2.92792 3.89902H2.05321C1.40596 3.89902 0.879349 4.42937 0.879349 5.08122V6.62091C0.387771 6.76202 0.0267334 7.21807 0.0267334 7.75775V25.8178C0.0267334 26.4697 0.553342 27 1.20065 27H7.59597C8.24322 27 8.76983 26.4697 8.76983 25.8178V9.92102C8.76983 9.7026 8.59405 9.52552 8.37711 9.52552C8.16018 9.52552 7.9844 9.7026 7.9844 9.92102V11.1557H0.812116V7.75775C0.812116 7.54207 0.986378 7.36657 1.20059 7.36657H7.59592C7.81008 7.36657 7.98434 7.54207 7.98434 7.75775V8.19735C7.98434 8.41577 8.16012 8.59286 8.37706 8.59286ZM7.59592 26.209H1.20059C0.986378 26.209 0.812116 26.0335 0.812116 25.8178V22.4198H7.98434V25.8178C7.98434 26.0335 7.81008 26.209 7.59592 26.209ZM7.98434 11.9467V21.6288H0.812116V11.9467H7.98434ZM4.04313 0.791016H4.75333L5.07876 3.89907H3.7177L4.04313 0.791016ZM2.05316 4.69009H6.74325C6.95741 4.69009 7.13168 4.86559 7.13168 5.08127V6.57555H1.66473V5.08127C1.66473 4.86559 1.83905 4.69009 2.05316 4.69009Z" fill="#13AD54"/>
</svg>
