<svg width="21" height="19" viewBox="0 0 21 19" fill="none" xmlns="http://www.w3.org/2000/svg">
<path d="M17.6253 7.82353H12.8976L14.5965 2.30235C14.9541 1.15118 14.0153 0 12.7188 0C12.0706 0 11.4447 0.268235 11.02 0.726471L4.47059 7.82353H0V19H4.47059H5.58824H16.1276C17.3124 19 18.3406 18.2512 18.5753 17.2006L20.0729 10.4947C20.3747 9.10882 19.2012 7.82353 17.6253 7.82353ZM4.47059 17.8824H1.11765V8.94118H4.47059V17.8824ZM18.9776 10.2488L17.48 16.9547C17.3682 17.4912 16.7982 17.8824 16.1276 17.8824H5.58824V8.25941L11.8471 1.48647C12.0594 1.25176 12.3835 1.11765 12.7188 1.11765C13.0094 1.11765 13.2776 1.24059 13.4229 1.45294C13.5012 1.56471 13.5906 1.74353 13.5235 1.97824L11.8247 7.49941L11.3776 8.94118H12.8865H17.6141C18.0724 8.94118 18.5082 9.13118 18.7653 9.45529C18.9106 9.62294 19.0559 9.90235 18.9776 10.2488Z" fill="#13AD54"/>
</svg>
