<svg width="26" height="26" viewBox="0 0 26 26" fill="none" xmlns="http://www.w3.org/2000/svg">
<path d="M26 4.0625V21.9375C26 24.1776 24.1776 26 21.9375 26H11.7305C9.49034 26 7.66797 24.1776 7.66797 21.9375V19.9062C7.66797 19.3453 8.12262 18.8906 8.68359 18.8906C9.24457 18.8906 9.69922 19.3453 9.69922 19.9062V21.9375C9.69922 23.0575 10.6105 23.9688 11.7305 23.9688H21.9375C23.0575 23.9688 23.9688 23.0575 23.9688 21.9375V4.0625C23.9688 2.94254 23.0575 2.03125 21.9375 2.03125H11.7305C10.6105 2.03125 9.69922 2.94254 9.69922 4.0625V6.09375C9.69922 6.65472 9.24457 7.10938 8.68359 7.10938C8.12262 7.10938 7.66797 6.65472 7.66797 6.09375V4.0625C7.66797 1.82237 9.49034 0 11.7305 0H21.9375C24.1776 0 26 1.82237 26 4.0625ZM11.4722 15.6305C11.0741 16.0257 11.0715 16.6687 11.4664 17.0669C11.665 17.267 11.9263 17.3672 12.1875 17.3672C12.4462 17.3672 12.7048 17.269 12.9028 17.0726L15.1953 14.7982C15.6789 14.3183 15.9453 13.6798 15.9453 13C15.9453 12.3202 15.6789 11.6817 15.1953 11.2018L12.9028 8.92738C12.5047 8.53244 11.8616 8.53482 11.4664 8.93314C11.0715 9.33125 11.0741 9.97435 11.4722 10.3693L13.1 11.9844H1.01562C0.454651 11.9844 0 12.439 0 13C0 13.561 0.454651 14.0156 1.01562 14.0156H13.1L11.4722 15.6305Z" fill="white"/>
</svg>
