<svg width="26" height="26" viewBox="0 0 26 26" fill="none" xmlns="http://www.w3.org/2000/svg">
<path d="M21.5269 15.6305C21.1288 16.0257 21.1262 16.6688 21.5211 17.0669C21.7197 17.267 21.9809 17.3672 22.2422 17.3672C22.5009 17.3672 22.7595 17.269 22.9575 17.0726L25.25 14.7982C25.7336 14.3184 26 13.6798 26 13C26 12.3202 25.7336 11.6817 25.25 11.2019L22.9575 8.92742C22.5594 8.53247 21.9163 8.53485 21.5211 8.93317C21.1262 9.33129 21.1288 9.97438 21.5269 10.3693L23.1547 11.9844H11.0703C10.5093 11.9844 10.0547 12.4391 10.0547 13C10.0547 13.561 10.5093 14.0157 11.0703 14.0157H23.1547L21.5269 15.6305Z" fill="#BFB7B6"/>
<path d="M0 4.0625V21.9375C0 24.1776 1.82237 26 4.0625 26H14.2695C16.5097 26 18.332 24.1776 18.332 21.9375V19.9062C18.332 19.3453 17.8774 18.8906 17.3164 18.8906C16.7554 18.8906 16.3008 19.3453 16.3008 19.9062V21.9375C16.3008 23.0575 15.3895 23.9688 14.2695 23.9688H4.0625C2.94254 23.9688 2.03125 23.0575 2.03125 21.9375V4.0625C2.03125 2.94254 2.94254 2.03125 4.0625 2.03125H14.2695C15.3895 2.03125 16.3008 2.94254 16.3008 4.0625V6.09375C16.3008 6.65472 16.7554 7.10938 17.3164 7.10938C17.8774 7.10938 18.332 6.65472 18.332 6.09375V4.0625C18.332 1.82237 16.5097 0 14.2695 0H4.0625C1.82237 0 0 1.82237 0 4.0625Z" fill="#BFB7B6"/>
</svg>
