<svg width="32" height="32" viewBox="0 0 32 32" fill="none" xmlns="http://www.w3.org/2000/svg">
<circle cx="16" cy="16" r="15" fill="#252223" stroke="white" stroke-width="2"/>
<g clip-path="url(#clip0_451_1799)">
<path d="M16.0016 9C13.4302 9 11.3281 11.102 11.3281 13.6735C11.3281 16.2449 13.4302 18.347 16.0016 18.347C18.573 18.347 20.6751 16.2449 20.6751 13.6735C20.6751 11.102 18.573 9 16.0016 9Z" fill="white"/>
<path d="M24.0211 22.0816C23.8986 21.7755 23.7354 21.4898 23.5517 21.2245C22.6129 19.8367 21.164 18.9184 19.5313 18.6939C19.3273 18.6735 19.1028 18.7143 18.9395 18.8367C18.0824 19.4694 17.062 19.7959 16.0007 19.7959C14.9395 19.7959 13.9191 19.4694 13.0619 18.8367C12.8986 18.7143 12.6742 18.6531 12.4701 18.6939C10.8374 18.9184 9.36806 19.8367 8.4497 21.2245C8.26603 21.4898 8.10275 21.7959 7.98032 22.0816C7.91911 22.2041 7.9395 22.347 8.00071 22.4694C8.164 22.7551 8.36806 23.0409 8.55173 23.2857C8.83743 23.6735 9.14357 24.0204 9.49052 24.347C9.77622 24.6327 10.1027 24.898 10.4293 25.1633C12.0415 26.3674 13.9803 27 15.9803 27C17.9803 27 19.9191 26.3673 21.5313 25.1633C21.8579 24.9184 22.1844 24.6327 22.4701 24.347C22.7967 24.0204 23.1232 23.6735 23.4089 23.2857C23.613 23.0204 23.7967 22.7551 23.9599 22.4694C24.0619 22.347 24.0823 22.2041 24.0211 22.0816Z" fill="white"/>
</g>
<defs>
<clipPath id="clip0_451_1799">
<rect width="18" height="18" fill="white" transform="translate(7 9)"/>
</clipPath>
</defs>
</svg>
