<svg width="50" height="50" viewBox="0 0 50 50" fill="none" xmlns="http://www.w3.org/2000/svg">
<path d="M34.3791 23.5649C32.6957 23.5649 31.3249 24.9194 31.3192 26.5915C31.3131 28.255 32.6906 29.6396 34.3571 29.6437C36.0277 29.6488 37.4001 28.2759 37.399 26.6038C37.398 24.9266 36.0435 23.5649 34.3791 23.5649ZM34.3791 28.1429C33.5167 28.1429 32.8226 27.4616 32.8246 26.6171C32.8256 25.7394 33.4988 25.0626 34.3694 25.0616C35.2215 25.0606 35.9197 25.7583 35.9126 26.6069C35.9024 27.4534 35.2164 28.1429 34.3791 28.1429Z" fill="white"/>
<path d="M15.6072 19.189C11.5663 19.1532 8.0435 22.5256 8.11358 26.8212C8.17956 30.8274 11.4814 34.2238 15.6911 34.187C19.8072 34.1522 23.1161 30.79 23.1238 26.7189C23.1299 22.5389 19.7811 19.189 15.6072 19.189ZM15.7279 31.2535C13.0205 31.3772 10.8358 29.2192 10.8404 26.5987C10.8455 23.9435 13.0333 21.9123 15.508 21.9573C18.0773 21.9542 20.1627 24.0284 20.1555 26.5967C20.1489 29.1962 18.0998 31.1455 15.7279 31.2535Z" fill="white"/>
<path d="M25 0C11.1933 0 0 11.1933 0 25C0 38.8066 11.1933 50 25 50C38.8066 50 50 38.8066 50 25C50 11.1933 38.8066 0 25 0ZM39.3714 34.7069C37.845 35.6767 36.1575 36.1366 34.355 36.1463C33.598 36.1514 32.8435 36.0496 32.1043 35.8578C30.3028 35.3903 28.7565 34.4911 27.4829 33.1315C27.3141 32.9524 27.156 32.7668 26.978 32.5647C26.3049 33.5678 25.6425 34.5555 24.9632 35.5678C24.288 34.5581 23.6332 33.5801 22.9821 32.6077C22.9371 32.6307 22.9243 32.6338 22.9151 32.6409C22.9003 32.6537 22.887 32.6696 22.8762 32.6829C21.3355 34.5018 19.3974 35.6159 17.0378 35.9898C15.7243 36.1974 14.4246 36.1233 13.1483 35.7708C11.3412 35.2742 9.8046 34.3212 8.56368 32.9136C7.3509 31.5386 6.59642 29.9407 6.31407 28.1243C5.99028 26.4302 6.38414 24.7954 6.48286 24.3995C6.7688 23.2476 7.26598 22.1887 7.94936 21.2153C7.99744 21.1463 8.01432 21.0235 7.9913 20.9417C7.71253 19.9197 7.23325 18.9898 6.67059 18.0992C6.52788 17.8737 6.35703 17.6644 6.19898 17.4471C6.19898 17.422 6.19898 17.3969 6.19898 17.3714C6.23018 17.3754 6.26189 17.3816 6.29309 17.3816C8.18414 17.3826 10.0762 17.3826 11.9678 17.3795C12.0506 17.3795 12.1417 17.3458 12.2128 17.3008C13.5417 16.4476 14.9581 15.7724 16.4455 15.2465C17.5187 14.868 18.6133 14.5724 19.7315 14.3555C20.8133 14.1468 21.9003 13.999 22.9995 13.9269C25.6788 13.7202 27.821 14.0036 29.2455 14.2026C30.2957 14.3504 31.3243 14.6153 32.3407 14.9269C34.1151 15.4731 35.7882 16.2327 37.3627 17.2169C37.4716 17.2849 37.6184 17.3279 37.7473 17.3279C39.5954 17.3361 41.444 17.333 43.2921 17.335C43.4409 17.335 43.5898 17.3509 43.7376 17.3591C43.7376 17.3949 43.7427 17.4102 43.7366 17.4189C43.6506 17.5509 43.5627 17.6829 43.4767 17.8153C42.8501 18.7765 42.3141 19.7836 41.9969 20.8951C41.9632 21.0138 41.955 21.1141 42.0358 21.2317C43.6824 23.5954 44.2061 26.1898 43.5187 28.9872C42.9146 31.4399 41.5089 33.3519 39.3714 34.7069Z" fill="white"/>
<path d="M15.4659 23.5649C13.8245 23.568 12.4491 24.9537 12.4526 26.6013C12.4567 28.2688 13.8312 29.6401 15.5028 29.6442C17.1642 29.6483 18.5406 28.2647 18.537 26.5931C18.5319 24.9056 17.1682 23.5619 15.4659 23.5649ZM15.5043 28.1588C14.623 28.1598 13.9437 27.4795 13.9437 26.5931C13.9437 25.723 14.622 25.0478 15.5002 25.0468C16.3642 25.0458 17.0598 25.7363 17.0639 26.5992C17.0665 27.4545 16.3652 28.1557 15.5043 28.1588Z" fill="white"/>
<path d="M34.2209 19.217C30.1191 19.3009 26.9089 22.6068 26.8721 26.6963C26.8721 30.8503 30.2429 34.2441 34.382 34.2283C38.537 34.2134 41.892 30.9152 41.8889 26.7152C41.8869 22.3863 38.3749 19.1321 34.2209 19.217ZM34.5585 31.2538C31.8623 31.3577 29.7048 29.2078 29.7058 26.6022C29.7069 23.9659 31.8808 21.9116 34.3667 21.9567C36.9381 21.9515 39.0209 24.0226 39.0209 26.5914C39.0204 29.1694 36.9733 31.1618 34.5585 31.2538Z" fill="white"/>
<path d="M27.996 19.7643C29.6574 18.24 31.6364 17.4406 33.8814 17.2707C31.217 16.0871 28.4077 15.5833 25.5157 15.5275C22.2297 15.4636 19.0328 15.948 15.9796 17.2288C18.2625 17.3674 20.2676 18.1638 21.9617 19.7035C23.6522 21.2421 24.643 23.1592 25.0026 25.415C25.373 23.1858 26.3366 21.2856 27.996 19.7643Z" fill="white"/>
</svg>
