<svg width="32" height="32" viewBox="0 0 32 32" fill="none" xmlns="http://www.w3.org/2000/svg">
<path d="M22.0027 15.0815C20.9254 15.0815 20.048 15.9484 20.0444 17.0186C20.0405 18.0832 20.9221 18.9693 21.9887 18.972C23.0579 18.9752 23.9362 18.0966 23.9355 17.0264C23.9349 15.953 23.068 15.0815 22.0027 15.0815ZM22.0027 18.0115C21.4508 18.0115 21.0066 17.5754 21.0079 17.0349C21.0085 16.4732 21.4394 16.0401 21.9965 16.0394C22.5419 16.0388 22.9888 16.4853 22.9842 17.0284C22.9776 17.5702 22.5386 18.0115 22.0027 18.0115Z" fill="#13AD54"/>
<path d="M9.98846 12.2809C7.40227 12.258 5.1477 14.4164 5.19255 17.1656C5.23478 19.7295 7.34793 21.9032 10.0421 21.8796C12.6765 21.8574 14.7942 19.7056 14.7991 17.1001C14.803 14.4249 12.6598 12.2809 9.98846 12.2809ZM10.0657 20.0022C8.33297 20.0814 6.93479 18.7003 6.93774 17.0232C6.94101 15.3238 8.34116 14.0238 9.92495 14.0526C11.5693 14.0507 12.904 15.3781 12.8994 17.0219C12.8951 18.6855 11.5837 19.9331 10.0657 20.0022Z" fill="#13AD54"/>
<path d="M16 0C7.16374 0 0 7.16374 0 16C0 24.8363 7.16374 32 16 32C24.8363 32 32 24.8363 32 16C32 7.16374 24.8363 0 16 0ZM25.1977 22.2124C24.2208 22.8331 23.1408 23.1274 21.9872 23.1336C21.5027 23.1369 21.0198 23.0718 20.5468 22.949C19.3938 22.6498 18.4042 22.0743 17.589 21.2041C17.481 21.0896 17.3798 20.9707 17.2659 20.8414C16.8351 21.4834 16.4112 22.1155 15.9764 22.7634C15.5443 22.1172 15.1253 21.4912 14.7085 20.8689C14.6797 20.8836 14.6715 20.8856 14.6657 20.8902C14.6562 20.8984 14.6477 20.9085 14.6408 20.917C13.6548 22.0811 12.4144 22.7941 10.9042 23.0335C10.0635 23.1664 9.23171 23.1189 8.41494 22.8933C7.25835 22.5755 6.27495 21.9656 5.48076 21.0647C4.70457 20.1847 4.22171 19.162 4.041 17.9995C3.83378 16.9153 4.08585 15.8691 4.14903 15.6157C4.33203 14.8784 4.65023 14.2008 5.08759 13.5778C5.11836 13.5336 5.12917 13.4551 5.11443 13.4027C4.93602 12.7486 4.62928 12.1535 4.26918 11.5835C4.17784 11.4391 4.0685 11.3052 3.96735 11.1661C3.96735 11.1501 3.96735 11.134 3.96735 11.1177C3.98731 11.1203 4.00761 11.1242 4.02758 11.1242C5.23785 11.1249 6.44878 11.1249 7.65938 11.1229C7.71241 11.1229 7.77068 11.1013 7.81618 11.0725C8.66668 10.5264 9.57316 10.0943 10.5251 9.75779C11.2119 9.51554 11.9125 9.32632 12.6281 9.18752C13.3205 9.05395 14.0162 8.95934 14.7197 8.91319C16.4344 8.78093 17.8054 8.96229 18.7171 9.08964C19.3892 9.18425 20.0476 9.35382 20.698 9.55319C21.8337 9.90281 22.9045 10.389 23.9121 11.0188C23.9818 11.0623 24.0758 11.0898 24.1583 11.0898C25.3411 11.0951 26.5242 11.0931 27.7069 11.0944C27.8022 11.0944 27.8975 11.1046 27.9921 11.1098C27.9921 11.1327 27.9953 11.1425 27.9914 11.1481C27.9364 11.2326 27.8801 11.317 27.8251 11.4018C27.4241 12.0169 27.081 12.6615 26.878 13.3729C26.8564 13.4488 26.8512 13.513 26.9029 13.5883C27.9567 15.1011 28.2919 16.7615 27.8519 18.5518C27.4653 20.1215 26.5657 21.3452 25.1977 22.2124Z" fill="#13AD54"/>
<path d="M9.89824 15.0815C8.84773 15.0835 7.96744 15.9703 7.96973 17.0248C7.97235 18.092 8.85198 18.9697 9.92181 18.9723C10.9851 18.9749 11.866 18.0894 11.8637 17.0196C11.8605 15.9396 10.9877 15.0796 9.89824 15.0815ZM9.9228 18.0216C9.35874 18.0223 8.924 17.5869 8.924 17.0196C8.924 16.4627 9.35809 16.0306 9.92018 16.0299C10.4731 16.0293 10.9183 16.4712 10.9209 17.0235C10.9226 17.5708 10.4738 18.0197 9.9228 18.0216Z" fill="#13AD54"/>
<path d="M21.9015 12.2989C19.2764 12.3526 17.2218 14.4683 17.1982 17.0856C17.1982 19.7442 19.3556 21.9162 22.0046 21.9061C24.6638 21.8966 26.811 19.7857 26.809 17.0977C26.8077 14.3272 24.56 12.2445 21.9015 12.2989ZM22.1176 20.0025C20.392 20.0689 19.0112 18.693 19.0118 17.0254C19.0125 15.3382 20.4038 14.0235 21.9948 14.0523C23.6405 14.049 24.9735 15.3745 24.9735 17.0185C24.9732 18.6684 23.6631 19.9435 22.1176 20.0025Z" fill="#13AD54"/>
<path d="M17.9175 12.6492C18.9808 11.6737 20.2474 11.162 21.6842 11.0533C19.9789 10.2958 18.1811 9.97331 16.3301 9.93763C14.2271 9.89671 12.1811 10.2067 10.2271 11.0264C11.6881 11.1152 12.9714 11.6249 14.0556 12.6102C15.1375 13.595 15.7716 14.8219 16.0018 16.2656C16.2388 14.839 16.8556 13.6228 17.9175 12.6492Z" fill="#13AD54"/>
</svg>
